# xmcd
#
# Track frame offsets: 
#        150
#        16164
#        35747
#        53000
#        71312
#        86167
#        102852
#        119015
#        135762
#        151157
#        168217
#        182192
#
# Disc length: 2678 seconds
#
# Revision: 4
# Processed by: cddbd v1.5.2PL0 Copyright (c) Steve Scherf et al.
# Submitted via: ExactAudioCopy v1.3
#
DISCID=910a740c
DTITLE=David Archuleta - David Archuleta
DYEAR=2008
DGENRE=Pop
TTITLE0=Crush
TTITLE1=Touch My Hand
TTITLE2=Barriers
TTITLE3=My Hands
TTITLE4=A Little Too Not Over You
TTITLE5=You Can
TTITLE6=Running
TTITLE7=Desperate
TTITLE8=To Be With You
TTITLE9=Don't Let Go
TTITLE10=Your Eyes Don't Lie
TTITLE11=Angels
EXTD=YEAR: 2008
EXTT0=
EXTT1=
EXTT2=
EXTT3=
EXTT4=
EXTT5=
EXTT6=
EXTT7=
EXTT8=
EXTT9=
EXTT10=
EXTT11=
PLAYORDER=
